<svg xmlns="http://www.w3.org/2000/svg">
    <symbol id="typescript">
        <g transform="translate(0,0) scale(.4)">
            <path d="M0 32v32h64.002V-.002H0zm51.577-2.55c1.625.406 2.865 1.128 4.003 2.306.59.63 1.463 1.778 1.534 2.052.02.08-2.763 1.95-4.45 2.997-.06.04-.305-.223-.58-.63-.823-1.2-1.686-1.717-3.007-1.808-1.94-.132-3.2.884-3.18 2.58 0 .498.07.792.274 1.2.427.884 1.22 1.412 3.708 2.49 4.582 1.97 6.542 3.27 7.76 5.12 1.36 2.062 1.666 5.354.742 7.802-1.016 2.662-3.535 4.47-7.08 5.07-1.097.193-3.698.163-4.876-.05-2.57-.457-5.008-1.727-6.512-3.393-.59-.65-1.737-2.347-1.666-2.47.03-.04.295-.203.59-.376l2.377-1.37 1.84-1.067.386.57c.538.823 1.717 1.95 2.428 2.326 2.042 1.077 4.846.924 6.227-.315.59-.538.833-1.097.833-1.92 0-.742-.09-1.067-.477-1.625-.498-.71-1.514-1.31-4.4-2.56-3.302-1.422-4.724-2.306-6.024-3.708-.752-.813-1.463-2.113-1.758-3.2-.244-.904-.305-3.17-.112-4.084.68-3.2 3.088-5.415 6.563-6.075 1.128-.213 3.75-.132 4.856.142zM36.552 32.12l.02 2.62h-8.33v23.67H22.35v-23.67h-8.33v-2.57l.07-2.64c.03-.04 5.1-.06 11.246-.05l11.185.03z" fill="#0074C9"/>
        </g>
    </symbol>
    <symbol id="postgres">
        <g transform="translate(0,0) scale(.19)">
            <path fill="#336791" fill-rule="evenodd" d="M123.258 76.784c-.45-2.918-2.901-4.829-5.752-4.958-1.032-.047-2.08.061-3.109.192-1.243.158-2.471.438-3.711.623-.857.128-1.726.187-2.582.275l-.021-.111c1.598-3.018 3.263-6.003 4.775-9.064 1.159-2.348 2.151-4.781 3.176-7.194 1.696-3.998 3.051-8.12 4.173-12.309 1.075-4.011 1.995-8.066 2.284-12.227.116-1.662.196-3.331.187-4.995-.008-1.327-.151-2.656-.284-3.979-.15-1.516-.608-2.953-1.242-4.336-.836-1.822-2.132-3.317-3.496-4.737-1.092-1.137-2.293-2.173-3.484-3.208-1.698-1.477-3.607-2.656-5.59-3.703-2.253-1.19-4.621-2.121-7.09-2.75-1.493-.381-3.02-.664-4.532-.966-.544-.11-1.089-.337-1.633-.337h-10.241c-.37 0-.737.191-1.11.233-2.452.273-4.875.735-7.228 1.464-.88.273-1.684.101-2.52.024-.641-.059-1.271-.231-1.912-.263-2.442-.122-4.887-.301-7.328-.275-2.339.024-4.654.409-6.918 1.052-1.895.538-3.749 1.195-5.447 2.191-.727.426-1.303.346-2.055.129-2.527-.729-5.072-1.414-7.639-1.989-1.6-.358-3.245-.536-4.879-.707-1.566-.163-3.144-.261-4.718-.294-1.538-.033-3.087-.032-4.618.104-2.439.217-4.832.713-7.158 1.513-2.583.888-4.951 2.175-7.086 3.865-2.167 1.715-3.905 3.809-5.303 6.2-1.473 2.523-2.483 5.224-3.111 8.061-.34 1.537-.555 3.117-.788 4.678-.073.486.732.972-.268 1.456v6.794c1 .452.208.903.266 1.356.139 1.089.262 2.187.446 3.268.291 1.711.636 3.417.988 5.117.491 2.375 1.002 4.748 1.546 7.111.396 1.72.847 3.43 1.319 5.131.721 2.598 1.431 5.201 2.246 7.77.757 2.387 1.624 4.74 2.484 7.093 1.191 3.255 2.617 6.405 4.327 9.424 1.479 2.614 3.169 5.062 5.436 7.076 1.494 1.327 3.157 2.347 5.093 2.857 1.521.4 3.067.448 4.624.129 1.805-.37 3.403-1.147 4.824-2.311.163-.134.342-.236.535.01.735.931 1.719 1.552 2.748 2.089 2.777 1.448 5.803 1.882 8.877 2.059.744.043 1.496-.064 2.246-.085 1.461-.04 2.881-.325 4.278-.729.732-.212 1.447-.481 2.192-.732.039.793.089 1.557.112 2.321l.104 4.166c.019.634.044 1.27.103 1.901.151 1.627.299 3.255.493 4.877.135 1.118.275 2.245.538 3.336.529 2.203 1.246 4.348 2.158 6.428.895 2.041 2.182 3.764 3.9 5.185 2.22 1.836 4.822 2.619 7.632 2.764 1.162.061 2.357.004 3.501-.204 1.813-.329 3.622-.743 5.387-1.275 3.591-1.084 6.695-2.956 9.014-5.981 1.32-1.724 2.404-3.589 3.1-5.648.574-1.701 1.115-3.419 1.545-5.16.34-1.372.508-2.787.715-4.188.137-.927.219-1.863.305-2.797.14-1.517.283-3.033.384-4.553.07-1.058.067-2.121.109-3.181.013-.323.065-.644.095-.966.028-.298.178-.401.482-.396 1.071.016 2.144.044 3.212-.004 1.197-.054 2.405-.105 3.583-.303 1.677-.281 3.346-.636 4.99-1.067 1.943-.508 3.725-1.418 5.44-2.455 1.998-1.207 3.819-2.623 5.297-4.447 1.285-1.591 1.894-3.43 1.584-5.438zm-3.412.982c-.066.915-.485 1.699-1.093 2.369-2.869 3.163-6.468 5.082-10.585 6.027-1.564.358-3.178.544-4.779.692-1.363.126-2.746.147-4.114.097-1.006-.038-2.004-.268-3.032-.416-.103.94-.201 1.919-.32 2.896l-.479 3.745c-.145 1.187-.258 2.378-.407 3.564-.146 1.151-.328 2.298-.481 3.449-.143 1.072-.248 2.149-.407 3.219-.245 1.64-.479 3.284-.799 4.911-.384 1.945-.973 3.829-1.934 5.583-1.172 2.141-2.834 3.772-4.949 4.98-2.18 1.246-4.563 1.894-6.979 2.436-1.71.384-3.472.447-5.204.291-3.004-.272-5.568-1.557-7.506-3.886-1.85-2.223-3.102-4.771-3.55-7.655-.214-1.371-.368-2.754-.491-4.136-.136-1.537-.229-3.079-.299-4.62-.089-1.957-.154-3.914-.197-5.871-.053-2.406-.07-4.812-.104-7.218l-.006-.092c-1.224.734-2.427 1.538-3.703 2.2-1.494.776-3.117 1.226-4.798 1.353-1.318.1-2.653.191-3.965.086-2.151-.173-4.3-.51-6.226-1.569-.781-.43-1.596-.953-2.134-1.64-1.29-1.646-.672-3.726 1.273-4.727 1.344-.693 2.811-.982 4.268-1.319 1.266-.293 2.526-.626 3.761-1.029 1.222-.4 1.993-1.391 2.754-2.363l1.206-1.551c-.503-.053-.977-.107-1.451-.151-1.439-.136-2.812-.532-4.125-1.114-1.124-.497-1.141-.551-1.965.343-1.376 1.494-2.714 3.023-4.062 4.542-.992 1.117-1.978 2.241-2.965 3.361-.978 1.108-1.894 2.279-2.947 3.31-1.564 1.531-3.449 2.452-5.698 2.348-1.443-.066-2.764-.572-3.952-1.399-2.452-1.708-4.104-4.097-5.608-6.606-1.927-3.215-3.406-6.64-4.672-10.159-.876-2.432-1.756-4.866-2.521-7.333-.831-2.681-1.56-5.396-2.277-8.11-.542-2.048-1.023-4.113-1.482-6.182-.521-2.353-1.022-4.71-1.464-7.079-.298-1.599-.471-3.221-.712-4.831-.325-2.17-.385-4.36-.267-6.539.105-1.963.387-3.921.667-5.871.388-2.698 1.277-5.244 2.556-7.648.783-1.473 1.755-2.812 2.879-4.056 1.845-2.042 4.078-3.518 6.562-4.626 1.736-.774 3.57-1.24 5.439-1.604 2.774-.54 5.573-.519 8.373-.461 1.224.025 2.443.248 3.666.369 2.633.262 5.214.816 7.762 1.5 1.857.498 3.676 1.143 5.518 1.703.185.056.456.051.607-.048 2.496-1.629 5.224-2.704 8.125-3.319 1.101-.233 2.237-.335 3.363-.407 1.369-.087 2.749-.167 4.115-.088 1.642.094 3.276.336 4.908.56.792.108 1.565.383 2.359.458.38.036.783-.242 1.185-.335 2.049-.473 4.089-1 6.156-1.374 1.539-.278 3.111-.409 4.676-.499 1.745-.1 3.503-.173 5.247-.089 2.205.106 4.394.42 6.555.923 2.677.623 5.245 1.528 7.686 2.784 1.824.938 3.558 2.026 5.119 3.364 1.023.878 2.07 1.745 2.994 2.723 1.14 1.206 2.303 2.413 3.018 3.958.538 1.165.922 2.371 1.028 3.647.132 1.586.292 3.178.277 4.766-.014 1.519-.221 3.037-.368 4.552-.334 3.454-1.085 6.833-1.997 10.167-.754 2.754-1.635 5.478-2.589 8.17-.879 2.481-1.893 4.917-2.918 7.343-.757 1.794-1.572 3.569-2.458 5.303-1.677 3.286-3.421 6.538-5.438 9.633-.348.535-.678 1.083-1.018 1.629.88.594 1.877.803 2.881.911.955.104 1.929.166 2.883.095 1.527-.113 3.049-.331 4.567-.544 1.504-.21 2.978-.638 4.522-.525 1.542.112 2.645 1.284 2.54 2.729zM97.833 74.413c-.655-.846-1.323-1.682-1.964-2.538-1.006-1.344-1.729-2.845-2.455-4.353-.688-1.429-1.532-2.782-2.257-4.195-1.265-2.465-2.553-4.922-3.718-7.435-1.465-3.157-2.62-6.426-2.984-9.923-.154-1.48-.193-2.958.106-4.424.479-2.341 1.702-4.172 3.758-5.428 1.907-1.165 4.032-1.541 6.209-1.659 1.351-.073 2.708-.013 4.11-.013l-.047-.237c-.872-1.823-1.687-3.677-2.641-5.457-1.346-2.512-3.068-4.777-4.986-6.877-1.421-1.555-2.96-2.998-4.646-4.273-1.658-1.255-3.405-2.376-5.269-3.293-2.223-1.093-4.538-1.938-6.967-2.477-2.334-.518-4.683-.835-7.077-.861-2.042-.022-4.071.07-6.06.531-3.002.695-5.748 1.931-8.137 3.933-1.334 1.118-2.498 2.373-3.517 3.77-1.196 1.643-2.161 3.417-2.986 5.277-1.132 2.552-1.909 5.208-2.44 7.938-.266 1.361-.474 2.734-.686 4.106-.074.48-.08.971-.123 1.521.369-.192.635-.34.907-.472l.885-.397c2.993-1.369 6.094-2.25 9.427-2.149 1.416.043 2.771.323 4.03.943 2.415 1.191 3.828 3.216 4.442 5.779.424 1.769.714 3.573.996 5.372.221 1.405.447 2.825.473 4.242.037 2.071-.068 4.146-.181 6.216-.096 1.764-.464 3.5-1.08 5.146-1.12 2.993-2.368 5.937-3.534 8.913-.385.983-.681 2.001-1.045 3.082.562 0 1.018-.004 1.474.002.178.003.36.008.532.049 1.34.316 2.502.923 3.455 1.954 1.271 1.372 1.938 2.973 1.972 4.826.019 1.027-.089 2.057-.084 3.084.021 4.786.057 9.572.097 14.357.007.782.046 1.565.102 2.346.117 1.635.235 3.271.395 4.902.112 1.157.268 2.312.451 3.461.259 1.628 1 3.077 1.841 4.462.724 1.191 1.665 2.203 2.905 2.901 2.107 1.186 4.376 1.285 6.663.848 1.545-.295 3.062-.769 4.562-1.258 1.479-.481 2.815-1.269 3.937-2.354 1.051-1.019 1.797-2.261 2.3-3.632.976-2.659 1.28-5.459 1.684-8.237.151-1.04.282-2.083.42-3.125.157-1.186.316-2.371.468-3.556.112-.883.214-1.768.322-2.651.154-1.268.317-2.535.464-3.804.113-.981.209-1.966.309-2.949.129-1.256.268-2.512.379-3.77.086-.955.051-1.927.22-2.864.311-1.718 1.123-3.18 2.646-4.125.637-.395 1.356-.655 2.063-.989l-.12-.186zM40.236 67.361c-.761-1.802-1.218-3.68-1.354-5.622-.128-1.825.089-3.643.276-5.46.182-1.76.333-3.528.386-5.296.088-2.906-.108-5.808-.247-8.712-.084-1.729.117-3.479.271-5.212.139-1.561.312-3.126.607-4.664.495-2.581 1.152-5.125 2.086-7.591.887-2.338 1.906-4.615 3.345-6.665.986-1.406 2.105-2.72 3.18-4.094l-.319-.113c-3.498-1.111-7.053-1.979-10.709-2.358-1.729-.179-3.464-.284-5.198-.387-.532-.032-1.072.04-1.606.091-1.322.126-2.66.176-3.961.424-2.214.421-4.338 1.129-6.305 2.282-1.766 1.035-3.249 2.373-4.491 3.978-1.372 1.772-2.295 3.776-2.958 5.913-.783 2.521-1.156 5.115-1.257 7.733-.088 2.295-.132 4.603.264 6.889.295 1.702.492 3.422.817 5.117.443 2.311.918 4.617 1.467 6.904.785 3.274 1.569 6.553 2.499 9.787.89 3.099 1.894 6.17 2.982 9.204.89 2.476 1.919 4.906 3.003 7.304.706 1.562 1.561 3.065 2.457 4.528.953 1.553 2.037 3.027 3.508 4.154 1.856 1.423 3.293 1.644 5.179.083.808-.669 1.491-1.495 2.194-2.282 1.117-1.25 2.195-2.534 3.307-3.788 1.416-1.598 2.85-3.179 4.273-4.769.301-.336.59-.682.883-1.022l-.484-.425c-1.769-1.699-3.139-3.669-4.095-5.931zM93.924 19.792c1.156 1.356 2.275 2.752 3.309 4.204 2 2.809 3.598 5.842 4.775 9.087.521 1.43.937 2.874.751 4.439-.129 1.096-.118 2.208-.215 3.31-.081.917-.226 1.829-.345 2.743-.178 1.378-.436 2.752-.513 4.136-.073 1.317.003 2.648.086 3.968.084 1.341.265 2.676.388 4.015.139 1.518.326 3.036.369 4.557.035 1.249-.076 2.506-.185 3.753-.13 1.502-.511 2.956-1.079 4.351-.399.982-.876 1.934-1.327 2.917l.181.192.275.213.277-.496c2.339-3.688 4.42-7.518 6.222-11.493 1.159-2.56 2.245-5.156 3.287-7.766 1.624-4.064 2.909-8.242 3.903-12.503.446-1.913.787-3.855 1.09-5.797.236-1.518.433-3.054.477-4.586.047-1.625-.043-3.263-.193-4.884-.112-1.224-.414-2.456-1.181-3.451-1.233-1.602-2.564-3.134-4.201-4.346-1.378-1.021-2.751-2.068-4.23-2.927-2.345-1.36-4.883-2.266-7.535-2.883-2.588-.603-5.21-.863-7.849-.918-1.556-.033-3.119.134-4.672.28-1.407.132-2.805.357-4.222.543 1.52.855 3.019 1.615 4.433 2.511 2.973 1.883 5.637 4.149 7.924 6.831zM55.299 72.514c.961-3.073 2.27-6.007 3.538-8.959 1.028-2.394 1.59-4.916 1.777-7.506.093-1.277.067-2.57.004-3.851-.071-1.423-.185-2.85-.392-4.259-.266-1.801-.569-3.603-.995-5.371-.462-1.913-1.627-3.245-3.623-3.736-1.216-.299-2.424-.287-3.653-.093-3.002.473-5.75 1.579-8.31 3.199-.515.326-.798.589-.709 1.328.188 1.565.229 3.155.222 4.735-.01 2.236-.105 4.472-.19 6.707-.028.728-.133 1.452-.211 2.177-.12 1.11-.351 2.219-.344 3.327.007 1.142.124 2.311.401 3.417.88 3.507 2.744 6.377 5.799 8.402 1.879 1.245 3.958 1.873 6.24 1.992.155-.524.293-1.019.446-1.509zm-3.586-30.087c-.402-.844-.172-1.543.76-1.867.227-.08.461-.165.697-.188.324-.032.654-.008.982-.008 1.182.006 2.319.171 3.295.923.626.482.794 1.122.389 1.779-.575.932-1.452 1.4-2.529 1.49-1.697.141-2.888-.65-3.594-2.129zM98.753 42.119c.136-1.124.245-2.251.384-3.375.056-.452-.182-.574-.561-.585-1.192-.033-2.384-.075-3.576-.097-1.344-.024-2.652.192-3.896.703-1.38.568-2.431 1.478-2.86 2.98-.32 1.12-.406 2.239-.293 3.41.172 1.785.568 3.517 1.193 5.176.834 2.221 1.707 4.441 2.75 6.569 1.413 2.881 3.012 5.67 4.513 8.507.401.757.738 1.547 1.156 2.431.875-1.853 1.302-3.708 1.351-5.622.041-1.61-.088-3.227-.182-4.838-.059-.986-.198-1.966-.294-2.95-.134-1.371-.337-2.741-.368-4.115-.031-1.397.068-2.802.188-4.197.113-1.338.334-2.665.495-3.997zm-2.689-1.082c-.443 1.223-1.39 1.913-2.618 2.116-1.145.188-2.148-.235-2.894-1.148-.531-.65-.328-1.42.468-1.859.914-.506 1.919-.634 3.104-.711.322.059.807.108 1.268.24.669.189.916.692.672 1.362zM60.642 78.697c-.655-.535-1.521-.566-2.144.021-.773.73-1.453 1.565-2.133 2.388-.785.951-1.521 1.94-2.534 2.677-1.474 1.071-3.192 1.515-4.919 1.935-1.373.334-2.752.644-4.129.965l-.017.178c.409.189.805.425 1.231.56 2.1.665 4.236.996 6.455.808 1.602-.136 3.128-.485 4.574-1.171 1.99-.943 3.521-2.437 4.823-4.175.218-.29.317-.719.343-1.093.089-1.321-.582-2.303-1.55-3.093zM112.393 79.223c-1.69.181-3.382.373-5.077.47-.818.047-1.648-.109-2.474-.176-1.385-.112-2.737-.42-3.908-1.16-.678-.427-1.241-.475-1.961-.233-1.028.346-1.867.872-2.115 1.986-.169.753-.23 1.533-.298 2.304-.013.136.157.386.287.42.793.209 1.59.456 2.401.529.996.09 2.01.061 3.013.011 1.083-.054 2.173-.124 3.24-.304 2.515-.422 4.948-1.11 7.109-2.536.779-.515 1.551-1.041 2.325-1.562l-.064-.11c-.826.123-1.648.273-2.478.361z" clip-rule="evenodd"></path>
        </g>
    </symbol>
    <symbol id="react">
        <g transform="translate(0,0) scale(.047)">
            <path d="M418.2 177.2c-5.4-1.8-10.8-3.5-16.2-5.1.9-3.7 1.7-7.4 2.5-11.1 12.3-59.6 4.2-107.5-23.1-123.3-26.3-15.1-69.2.6-112.6 38.4-4.3 3.7-8.5 7.6-12.5 11.5-2.7-2.6-5.5-5.2-8.3-7.7-45.5-40.4-91.1-57.4-118.4-41.5-26.2 15.2-34 60.3-23 116.7 1.1 5.6 2.3 11.1 3.7 16.7-6.4 1.8-12.7 3.8-18.6 5.9C38.3 196.2 0 225.4 0 255.6c0 31.2 40.8 62.5 96.3 81.5 4.5 1.5 9 3 13.6 4.3-1.5 6-2.8 11.9-4 18-10.5 55.5-2.3 99.5 23.9 114.6 27 15.6 72.4-.4 116.6-39.1 3.5-3.1 7-6.3 10.5-9.7 4.4 4.3 9 8.4 13.6 12.4 42.8 36.8 85.1 51.7 111.2 36.6 27-15.6 35.8-62.9 24.4-120.5-.9-4.4-1.9-8.9-3-13.5 3.2-.9 6.3-1.9 9.4-2.9 57.7-19.1 99.5-50 99.5-81.7 0-30.3-39.4-59.7-93.8-78.4zM282.9 92.3c37.2-32.4 71.9-45.1 87.7-36 16.9 9.7 23.4 48.9 12.8 100.4-.7 3.4-1.4 6.7-2.3 10-22.2-5-44.7-8.6-67.3-10.6-13-18.6-27.2-36.4-42.6-53.1 3.9-3.7 7.7-7.2 11.7-10.7zM167.2 307.5c5.1 8.7 10.3 17.4 15.8 25.9-15.6-1.7-31.1-4.2-46.4-7.5 4.4-14.4 9.9-29.3 16.3-44.5 4.6 8.8 9.3 17.5 14.3 26.1zm-30.3-120.3c14.4-3.2 29.7-5.8 45.6-7.8-5.3 8.3-10.5 16.8-15.4 25.4-4.9 8.5-9.7 17.2-14.2 26-6.3-14.9-11.6-29.5-16-43.6zm27.4 68.9c6.6-13.8 13.8-27.3 21.4-40.6s15.8-26.2 24.4-38.9c15-1.1 30.3-1.7 45.9-1.7s31 .6 45.9 1.7c8.5 12.6 16.6 25.5 24.3 38.7s14.9 26.7 21.7 40.4c-6.7 13.8-13.9 27.4-21.6 40.8-7.6 13.3-15.7 26.2-24.2 39-14.9 1.1-30.4 1.6-46.1 1.6s-30.9-.5-45.6-1.4c-8.7-12.7-16.9-25.7-24.6-39s-14.8-26.8-21.5-40.6zm180.6 51.2c5.1-8.8 9.9-17.7 14.6-26.7 6.4 14.5 12 29.2 16.9 44.3-15.5 3.5-31.2 6.2-47 8 5.4-8.4 10.5-17 15.5-25.6zm14.4-76.5c-4.7-8.8-9.5-17.6-14.5-26.2-4.9-8.5-10-16.9-15.3-25.2 16.1 2 31.5 4.7 45.9 8-4.6 14.8-10 29.2-16.1 43.4zM256.2 118.3c10.5 11.4 20.4 23.4 29.6 35.8-19.8-.9-39.7-.9-59.5 0 9.8-12.9 19.9-24.9 29.9-35.8zM140.2 57c16.8-9.8 54.1 4.2 93.4 39 2.5 2.2 5 4.6 7.6 7-15.5 16.7-29.8 34.5-42.9 53.1-22.6 2-45 5.5-67.2 10.4-1.3-5.1-2.4-10.3-3.5-15.5-9.4-48.4-3.2-84.9 12.6-94zm-24.5 263.6c-4.2-1.2-8.3-2.5-12.4-3.9-21.3-6.7-45.5-17.3-63-31.2-10.1-7-16.9-17.8-18.8-29.9 0-18.3 31.6-41.7 77.2-57.6 5.7-2 11.5-3.8 17.3-5.5 6.8 21.7 15 43 24.5 63.6-9.6 20.9-17.9 42.5-24.8 64.5zm116.6 98c-16.5 15.1-35.6 27.1-56.4 35.3-11.1 5.3-23.9 5.8-35.3 1.3-15.9-9.2-22.5-44.5-13.5-92 1.1-5.6 2.3-11.2 3.7-16.7 22.4 4.8 45 8.1 67.9 9.8 13.2 18.7 27.7 36.6 43.2 53.4-3.2 3.1-6.4 6.1-9.6 8.9zm24.5-24.3c-10.2-11-20.4-23.2-30.3-36.3 9.6.4 19.5.6 29.5.6 10.3 0 20.4-.2 30.4-.7-9.2 12.7-19.1 24.8-29.6 36.4zm130.7 30c-.9 12.2-6.9 23.6-16.5 31.3-15.9 9.2-49.8-2.8-86.4-34.2-4.2-3.6-8.4-7.5-12.7-11.5 15.3-16.9 29.4-34.8 42.2-53.6 22.9-1.9 45.7-5.4 68.2-10.5 1 4.1 1.9 8.2 2.7 12.2 4.9 21.6 5.7 44.1 2.5 66.3zm18.2-107.5c-2.8.9-5.6 1.8-8.5 2.6-7-21.8-15.6-43.1-25.5-63.8 9.6-20.4 17.7-41.4 24.5-62.9 5.2 1.5 10.2 3.1 15 4.7 46.6 16 79.3 39.8 79.3 58 0 19.6-34.9 44.9-84.8 61.4zm-149.7-15c25.3 0 45.8-20.5 45.8-45.8s-20.5-45.8-45.8-45.8c-25.3 0-45.8 20.5-45.8 45.8s20.5 45.8 45.8 45.8z" fill="#03a9f4" stroke="#03a9f4" stroke-width="15"/>
        </g>
    </symbol>
    <symbol id="mongodb">
        <g transform="translate(0,0) scale(.75)">
            <path d="M15.9.087l.854 1.604c.192.296.4.558.645.802.715.715 1.394 1.464 2.004 2.266 1.447 1.9 2.423 4.01 3.12 6.292.418 1.394.645 2.824.662 4.27.07 4.323-1.412 8.035-4.4 11.12-.488.488-1.01.94-1.57 1.342-.296 0-.436-.227-.558-.436-.227-.383-.366-.82-.436-1.255-.105-.523-.174-1.046-.14-1.586v-.244C16.057 24.21 15.796.21 15.9.087z" fill="#599636"/><path d="M15.9.034c-.035-.07-.07-.017-.105.017.017.35-.105.662-.296.96-.21.296-.488.523-.767.767-1.55 1.342-2.77 2.963-3.747 4.776-1.3 2.44-1.97 5.055-2.16 7.808-.087.993.314 4.497.627 5.508.854 2.684 2.388 4.933 4.375 6.885.488.47 1.01.906 1.55 1.325.157 0 .174-.14.21-.244a4.78 4.78 0 0 0 .157-.68l.35-2.614L15.9.034z" fill="#6cac48"/><path d="M16.754 28.845c.035-.4.227-.732.436-1.063-.21-.087-.366-.26-.488-.453-.105-.174-.192-.383-.26-.575-.244-.732-.296-1.5-.366-2.248v-.453c-.087.07-.105.662-.105.75a17.37 17.37 0 0 1-.314 2.353c-.052.314-.087.627-.28.906 0 .035 0 .07.017.122.314.924.4 1.865.453 2.824v.35c0 .418-.017.33.33.47.14.052.296.07.436.174.105 0 .122-.087.122-.157l-.052-.575v-1.604c-.017-.28.035-.558.07-.82z" fill="#c2bfbf"/>
        </g>
    </symbol>
    <symbol id="sass">
        <g transform="translate(0, 0) scale(.37)">
            <path d="M55.094 35.56c-2.238.013-4.175.55-5.8 1.35-.6-1.188-1.2-2.225-1.3-3-.113-.9-.25-1.45-.113-2.525s.763-2.6.763-2.725c-.012-.113-.138-.663-1.425-.675s-2.4.25-2.525.588a14.36 14.36 0 0 0-.538 1.913c-.225 1.175-2.575 5.338-3.913 7.526-.438-.85-.813-1.6-.888-2.2-.113-.9-.25-1.45-.113-2.525s.763-2.6.763-2.725c-.012-.113-.138-.663-1.425-.675s-2.4.25-2.525.588-.263 1.138-.538 1.913c-.263.775-3.388 7.726-4.2 9.538-.413.925-.775 1.663-1.038 2.163s-.012.038-.037.088l-.35.663v.012c-.175.313-.363.613-.45.613-.062 0-.188-.838.025-1.988.463-2.413 1.588-6.176 1.575-6.313 0-.062.213-.725-.725-1.063-.913-.338-1.238.225-1.313.225s-.138.2-.138.2 1.013-4.238-1.938-4.238c-1.85 0-4.4 2.013-5.663 3.85l-6.376 3.488-.138-.15C11.178 35.66 4.565 32.96 4.84 27.835c.1-1.863.75-6.776 12.7-12.726 9.788-4.875 17.627-3.538 18.99-.563 1.938 4.25-4.188 12.15-14.364 13.29-3.875.438-5.913-1.063-6.426-1.625-.538-.588-.613-.613-.813-.5-.325.175-.125.7 0 1.013.3.788 1.55 2.188 3.675 2.888 1.863.613 6.413.95 11.914-1.175 6.163-2.388 10.976-9.013 9.563-14.55-1.438-5.638-10.788-7.488-19.627-4.35C15.19 11.41 9.5 14.334 5.4 18.172.515 22.722-.26 26.698.064 28.348c1.138 5.888 9.25 9.726 12.5 12.564l-.45.25c-1.625.8-7.813 4.038-9.363 7.463-1.75 3.875.275 6.663 1.625 7.038 4.175 1.163 8.45-.925 10.763-4.363 2.3-3.438 2.025-7.9.963-9.938l-.038-.075 1.275-.75c.825-.488 1.638-.938 2.35-1.325-.4 1.088-.688 2.375-.838 4.25-.175 2.2.725 5.05 1.913 6.176.525.488 1.15.5 1.538.5 1.375 0 2-1.138 2.688-2.5.85-1.663 1.6-3.588 1.6-3.588s-.938 5.213 1.625 5.213c.938 0 1.875-1.213 2.3-1.838v.012s.025-.038.075-.125c.1-.15.15-.238.15-.238v-.025c.375-.65 1.213-2.138 2.463-4.6 1.613-3.175 3.163-7.15 3.163-7.15s.15.975.613 2.575c.275.95.875 1.988 1.338 3l-.6.825.012.013a35.62 35.62 0 0 1-.988 1.25c-1.275 1.525-2.8 3.263-3 3.763-.238.588-.188 1.025.275 1.375.338.25.938.3 1.575.25 1.15-.075 1.95-.363 2.35-.538a8.14 8.14 0 0 0 2.025-1.063c1.25-.925 2.013-2.238 1.938-3.988-.038-.963-.35-1.913-.738-2.813l.338-.5c1.975-2.888 3.5-6.063 3.5-6.063s.15.975.613 2.575c.238.813.713 1.7 1.138 2.575-1.85 1.513-3.013 3.263-3.413 4.413-.738 2.125-.163 3.088.925 3.313.488.1 1.188-.125 1.713-.35.65-.213 1.438-.575 2.163-1.113 1.25-.925 2.45-2.213 2.388-3.95-.038-.8-.25-1.588-.538-2.338 1.575-.65 3.613-1.025 6.2-.713 5.563.65 6.663 4.125 6.45 5.575s-1.375 2.25-1.763 2.5c-.388.238-.513.325-.475.5.05.263.225.25.563.2.463-.075 2.925-1.188 3.025-3.863.15-3.438-3.113-7.188-8.9-7.15zM12.19 50.025c-1.838 2.013-4.425 2.775-5.525 2.125-1.188-.688-.725-3.65 1.538-5.788 1.375-1.3 3.163-2.5 4.338-3.238l1.138-.688c.075-.05.125-.075.125-.075.088-.05.188-.113.288-.175.838 3.05.038 5.725-1.9 7.838zm13.44-9.138c-.638 1.563-1.988 5.575-2.8 5.35-.7-.188-1.125-3.225-.138-6.226.5-1.513 1.563-3.313 2.188-4.013 1.013-1.125 2.113-1.5 2.388-1.038.325.6-1.238 4.95-1.638 5.926zm11.088 5.3c-.275.138-.525.238-.638.163-.088-.05.113-.238.113-.238s1.388-1.488 1.938-2.175l1.088-1.388v.15c0 1.8-1.725 3-2.5 3.488zm8.55-1.95c-.2-.15-.175-.613.5-2.063.263-.575.863-1.538 1.9-2.45.125.375.2.738.188 1.075-.013 2.25-1.613 3.088-2.588 3.438z" fill="#cf649a"/>
        </g>
    </symbol>
    <symbol id="html">
        <g transform="translate(2, 0) scale(.045)">
            <path fill="#e34f26" d="M41 460L0 0h451l-41 460-185 52"/>
            <path fill="#ef652a" d="M226 472l149-41 35-394H226"/>
            <path fill="#ecedee" d="M226 208h-75l-5-58h80V94H84l15 171h127zm0 147l-64-17-4-45h-56l7 89 117 32z"/>
            <path fill="#fff" d="M226 265h69l-7 73-62 17v59l115-32 16-174H226zm0-171v56h136l5-56z"/>
        </g>
    </symbol>
    <symbol id="javascript">
        <g transform="translate(0,0) scale(.038)">
            <rect width="630" height="630" fill="#f7df1e"/>
            <path d="m423.2 492.19c12.69 20.72 29.2 35.95 58.4 35.95 24.53 0 40.2-12.26 40.2-29.2 0-20.3-16.1-27.49-43.1-39.3l-14.8-6.35c-42.72-18.2-71.1-41-71.1-89.2 0-44.4 33.83-78.2 86.7-78.2 37.64 0 64.7 13.1 84.2 47.4l-46.1 29.6c-10.15-18.2-21.1-25.37-38.1-25.37-17.34 0-28.33 11-28.33 25.37 0 17.76 11 24.95 36.4 35.95l14.8 6.34c50.3 21.57 78.7 43.56 78.7 93 0 53.3-41.87 82.5-98.1 82.5-54.98 0-90.5-26.2-107.88-60.54zm-209.13 5.13c9.3 16.5 17.76 30.45 38.1 30.45 19.45 0 31.72-7.61 31.72-37.2v-201.3h59.2v202.1c0 61.3-35.94 89.2-88.4 89.2-47.4 0-74.85-24.53-88.81-54.075z"/>
        </g>
    </symbol>
    <symbol id="css">
        <g transform="translate(2, 0) scale(.045)">
            <path fill="#0c73b8" d="M41 460L0 0h451l-41 460-185 52"/>
            <path fill="#30a9dc" d="M226 472l149-41 35-394H226"/>
            <path fill="#ecedee" d="M226 208H94l5 57h127zm0-114H84l5 56h137zm0 261l-124-33 7 60 117 32z"/>
            <path fill="#fff" d="M226 265h69l-7 73-62 17v59l115-32 26-288H226v56h80l-6 58h-74z"/>
        </g>
    </symbol>
    <symbol id="python">
        <g>
            <path d="M18.231 7.357h.001v-.004z"></path>
            <path fill="#F2BB30" d="M20.699 17.748c1.666 0 2.282-1.162 2.861-2.904.6-1.794.574-3.52 0-5.818-.413-1.655-1.194-2.904-2.861-2.904h-2.147v2.541c0 1.971-1.672 3.632-3.578 3.632H9.252c-1.565 0-2.861 1.339-2.861 2.909v5.454c0 1.553 1.35 2.464 2.861 2.909 1.81.53 3.552.626 5.721 0 1.441-.418 2.861-1.26 2.861-2.909v-2.181h-5.717v-.728h8.582zm-5.367 2.181c.594 0 1.077.488 1.077 1.088 0 .606-.482 1.093-1.077 1.093a1.09 1.09 0 0 1-1.077-1.093 1.088 1.088 0 0 1 1.077-1.088z"></path>
            <path fill="#35668F" d="M3.444 17.749H5.41v-2.615c0-1.891 1.634-3.558 3.578-3.558h5.721c1.591 0 2.861-1.312 2.861-2.909V3.209c0-1.553-1.307-2.717-2.861-2.978-1.918-.317-4.002-.299-5.721.006l.001-.001c-2.422.428-2.86 1.322-2.86 2.977v2.181h5.727v.729H3.98C2.314 6.123.856 7.125.402 9.027c-.525 2.181-.546 3.541 0 5.818.406 1.693 1.377 2.904 3.042 2.904zM8.63 3.937a1.084 1.084 0 0 1-1.077-1.088A1.089 1.089 0 0 1 8.63 1.756c.59 0 1.077.492 1.077 1.093S9.225 3.937 8.63 3.937z"></path>
        </g>
    </symbol>
    <symbol id="git">
        <g transform="translate(0, 0) scale(.189)">
            <path fill="#F34F29" d="M124.742 58.378l-55.117-55.114c-3.172-3.174-8.32-3.174-11.497 0l-11.443 11.446 14.518 14.518c3.375-1.139 7.243-.375 9.932 2.314 2.703 2.706 3.462 6.607 2.293 9.993l13.992 13.994c3.385-1.167 7.292-.413 9.994 2.295 3.78 3.777 3.78 9.9 0 13.679-3.78 3.78-9.901 3.78-13.683 0-2.842-2.844-3.545-7.019-2.105-10.521l-13.048-13.049-.002 34.341c.922.455 1.791 1.063 2.559 1.828 3.779 3.777 3.779 9.898 0 13.683-3.779 3.777-9.904 3.777-13.679 0-3.778-3.784-4.088-9.905-.311-13.683.934-.933 1.855-1.638 2.855-2.11v-34.659c-1-.472-1.92-1.172-2.856-2.111-2.861-2.86-3.396-7.06-1.928-10.576l-14.233-14.313-37.754 37.79c-3.175 3.177-3.155 8.325.02 11.5l55.126 55.114c3.173 3.174 8.325 3.174 11.503 0l54.86-54.858c3.175-3.176 3.178-8.327.004-11.501z"></path>
        </g>
    </symbol>
    <symbol id="github">
        <g fill="none" fill-rule="evenodd" transform="translate(0, 0) scale(.335)">
            <rect width="72" height="72" fill="#FFF" rx="4"></rect>
            <path fill="#161614" d="M4 0C1.79 0 0 1.798 0 4v64c0 2.21 1.785 4 4 4h20c2 0 3.079-2.84 3.079-3.788 0-.856-.033-3.683-.049-6.681-10.015 2.17-12.129-4.234-12.129-4.234-1.637-4.148-3.997-5.251-3.997-5.251-3.266-2.227.246-2.182.246-2.182 3.615.253 5.519 3.698 5.519 3.698 3.21 5.487 8.422 3.9 10.476 2.984.323-2.32 1.256-3.903 2.286-4.8-7.996-.907-16.402-3.984-16.402-17.734 0-3.918 1.406-7.12 3.71-9.633-.375-.903-1.607-4.553.348-9.496 0 0 3.023-.965 9.902 3.678 2.872-.795 5.952-1.194 9.011-1.207 3.06.013 6.142.412 9.019 1.207 6.871-4.643 9.89-3.678 9.89-3.678 1.96 4.943.727 8.593.353 9.496 2.308 2.514 3.705 5.715 3.705 9.633 0 13.783-8.422 16.818-16.438 17.706 1.291 1.114 2.442 3.298 2.442 6.646 0 4.802-.042 8.666-.042 9.848 0 .955 0 3.788 3.071 3.788h19.998A4.005 4.005 0 0 0 72 68V4c0-2.21-1.798-4-4-4H4zm9.635 51.525c-.08.178-.36.231-.617.109-.261-.117-.408-.36-.323-.539.078-.184.36-.235.62-.112.262.117.41.363.32.542zm1.458 1.62c-.171.16-.507.086-.735-.165-.235-.25-.28-.585-.105-.746.177-.159.502-.084.738.166.236.253.282.585.102.746zm1.42 2.068c-.22.152-.581.01-.804-.31-.221-.32-.221-.702.004-.855.224-.153.58-.016.805.301.22.325.22.707-.005.864zm1.944 1.996c-.197.217-.617.159-.925-.137-.315-.29-.402-.7-.204-.917.2-.217.622-.156.932.137.312.29.408.703.197.917zm2.683 1.16c-.087.28-.492.409-.9.29-.407-.124-.673-.453-.59-.737.084-.283.49-.416.901-.288.407.122.674.449.59.735zm2.946.215c.01.296-.335.541-.763.547-.43.009-.779-.23-.784-.522 0-.299.338-.542.769-.549.428-.008.778.23.778.524zm2.742-.465c.051.288-.246.585-.671.664-.418.076-.805-.102-.858-.389-.052-.296.25-.592.668-.669.426-.074.807.1.86.394z"></path>
        </g>
    </symbol>
    <symbol id="nodejs">
        <g transform="translate(0, 0) scale(.19)">
            <path fill="#83CD29" d="M112.678 30.334l-44.143-25.605c-2.781-1.584-6.424-1.584-9.227 0l-44.488 25.605c-2.869 1.651-4.82 4.754-4.82 8.073v51.142c0 3.319 1.992 6.423 4.862 8.083l11.729 6.688c5.627 2.772 7.186 2.772 9.746 2.772 8.334 0 12.662-5.039 12.662-13.828v-50.49c.001-.713.446-1.774-.255-1.774h-5.622c-.712 0-2.122 1.061-2.122 1.773v50.49c0 3.896-3.616 7.773-10.202 4.48l-12.122-7.013c-.422-.23-.676-.693-.676-1.181v-51.142c0-.482.463-.966.891-1.213l44.378-25.561c.415-.235 1.002-.235 1.415 0l43.963 25.555c.421.253.354.722.354 1.219v51.142c0 .488.092.963-.323 1.198l-44.133 25.576c-.378.227-.87.227-1.285 0l-11.317-6.749c-.341-.198-.752-.269-1.08-.086-3.145 1.783-3.729 2.02-6.679 3.043-.727.253-1.799.692.408 1.929l14.798 8.754c1.416.82 3.027 1.246 4.647 1.246 1.642 0 3.249-.426 4.666-1.246l43.976-25.582c2.871-1.672 4.322-4.764 4.322-8.083v-51.142c-.001-3.319-1.452-6.414-4.323-8.073zM77.727 81.445c-11.727 0-14.309-3.235-15.17-9.066-.102-.628-.634-1.379-1.274-1.379h-5.73c-.709 0-1.28.86-1.28 1.566 0 7.466 4.06 16.512 23.454 16.512 14.038 0 22.088-5.455 22.088-15.109 0-9.572-6.467-12.084-20.082-13.886-13.762-1.819-15.16-2.738-15.16-5.962 0-2.658 1.184-6.203 11.374-6.203 9.104 0 12.46 1.954 13.841 8.091.119.577.646.991 1.241.991h5.754c.354 0 .691-.143.939-.396.241-.272.367-.613.336-.979-.893-10.569-7.913-15.494-22.112-15.494-12.632 0-20.166 5.334-20.166 14.275 0 9.698 7.497 12.378 19.622 13.577 14.505 1.422 15.633 3.542 15.633 6.395 0 4.956-3.978 7.067-13.308 7.067z"></path>
        </g>
    </symbol>
    <symbol id="docker">
        <g transform="translate(0, 0) scale(.19)">
            <path fill="#3A4D54" fill-rule="evenodd" d="M73.8 50.8h11.3v11.5h5.7c2.6 0 5.3-.5 7.8-1.3 1.2-.4 2.6-1 3.8-1.7-1.6-2.1-2.4-4.7-2.6-7.3-.3-3.5.4-8.1 2.8-10.8l1.2-1.4 1.4 1.1c3.6 2.9 6.5 6.8 7.1 11.4 4.3-1.3 9.3-1 13.1 1.2l1.5.9-.8 1.6c-3.2 6.2-9.9 8.2-16.4 7.8-9.8 24.3-31 35.8-56.8 35.8-13.3 0-25.5-5-32.5-16.8l-.1-.2-1-2.1c-2.4-5.2-3.1-10.9-2.6-16.6l.2-1.7h9.6v-11.4h11.3v-11.2h22.5v-11.3h13.5v22.5z" clip-rule="evenodd"></path>
            <path fill="#00AADA" d="M110.4 55.1c.8-5.9-3.6-10.5-6.4-12.7-3.1 3.6-3.6 13.2 1.3 17.2-2.8 2.4-8.5 4.7-14.5 4.7h-72.2c-.6 6.2.5 11.9 3 16.8l.8 1.5c.5.9 1.1 1.7 1.7 2.6 3 .2 5.7.3 8.2.2 4.9-.1 8.9-.7 12-1.7.5-.2.9.1 1.1.5.2.5-.1.9-.5 1.1-.4.1-.8.3-1.3.4-2.4.7-5 1.1-8.3 1.3h-.6000000000000001c-1.3.1-2.7.1-4.2.1-1.6 0-3.1 0-4.9-.1 6 6.8 15.4 10.8 27.2 10.8 25 0 46.2-11.1 55.5-35.9 6.7.7 13.1-1 16-6.7-4.5-2.7-10.5-1.8-13.9-.1z"></path>
            <path fill="#28B8EB" d="M110.4 55.1c.8-5.9-3.6-10.5-6.4-12.7-3.1 3.6-3.6 13.2 1.3 17.2-2.8 2.4-8.5 4.7-14.5 4.7h-68c-.3 9.5 3.2 16.7 9.5 21 4.9-.1 8.9-.7 12-1.7.5-.2.9.1 1.1.5.2.5-.1.9-.5 1.1-.4.1-.8.3-1.3.4-2.4.7-5.2 1.2-8.5 1.4l-.1-.1c8.5 4.4 20.8 4.3 35-1.1 15.8-6.1 30.6-17.7 40.9-30.9-.2.1-.4.1-.5.2z"></path>
            <path fill="#028BB8" d="M18.7 71.8c.4 3.3 1.4 6.4 2.9 9.3l.8 1.5c.5.9 1.1 1.7 1.7 2.6 3 .2 5.7.3 8.2.2 4.9-.1 8.9-.7 12-1.7.5-.2.9.1 1.1.5.2.5-.1.9-.5 1.1-.4.1-.8.3-1.3.4-2.4.7-5.2 1.2-8.5 1.4h-.4c-1.3.1-2.7.1-4.1.1-1.6 0-3.2 0-4.9-.1 6 6.8 15.5 10.8 27.3 10.8 21.4 0 40-8.1 50.8-26h-85.1v-.1z"></path>
            <path fill="#019BC6" d="M23.5 71.8c1.3 5.8 4.3 10.4 8.8 13.5 4.9-.1 8.9-.7 12-1.7.5-.2.9.1 1.1.5.2.5-.1.9-.5 1.1-.4.1-.8.3-1.3.4-2.4.7-5.2 1.2-8.6 1.4 8.5 4.4 20.8 4.3 34.9-1.1 8.5-3.3 16.8-8.2 24.2-14.1h-70.6z"></path>
            <path fill="#00ACD3" fill-rule="evenodd" d="M28.4 52.7h9.8v9.8h-9.8v-9.8zm.8.8h.8v8.1h-.8v-8.1zm1.4 0h.8v8.1h-.8v-8.1zm1.5 0h.8v8.1h-.8v-8.1zm1.5 0h.8v8.1h-.8v-8.1zm1.5 0h.8v8.1h-.8v-8.1zm1.5 0h.8v8.1h-.8v-8.1zM39.6 41.5h9.8v9.8h-9.8v-9.8zm.9.8h.8v8.1h-.8v-8.1zm1.4 0h.8v8.1h-.8v-8.1zm1.5 0h.8v8.1h-.8v-8.1zm1.5 0h.8v8.1h-.8v-8.1zm1.4 0h.8v8.1h-.8v-8.1zm1.5 0h.8v8.1h-.8v-8.1z" clip-rule="evenodd"></path>
            <path fill="#23C2EE" fill-rule="evenodd" d="M39.6 52.7h9.8v9.8h-9.8v-9.8zm.9.8h.8v8.1h-.8v-8.1zm1.4 0h.8v8.1h-.8v-8.1zm1.5 0h.8v8.1h-.8v-8.1zm1.5 0h.8v8.1h-.8v-8.1zm1.4 0h.8v8.1h-.8v-8.1zm1.5 0h.8v8.1h-.8v-8.1z" clip-rule="evenodd"></path>
            <path fill="#00ACD3" fill-rule="evenodd" d="M50.9 52.7h9.8v9.8h-9.8v-9.8zm.8.8h.8v8.1h-.8v-8.1zm1.5 0h.8v8.1h-.8v-8.1zm1.5 0h.8v8.1h-.8v-8.1zm1.4 0h.8v8.1h-.8v-8.1zm1.5 0h.8v8.1h-.8v-8.1zm1.5 0h.8v8.1h-.8v-8.1z" clip-rule="evenodd"></path>
            <path fill="#23C2EE" fill-rule="evenodd" d="M50.9 41.5h9.8v9.8h-9.8v-9.8zm.8.8h.8v8.1h-.8v-8.1zm1.5 0h.8v8.1h-.8v-8.1zm1.5 0h.8v8.1h-.8v-8.1zm1.4 0h.8v8.1h-.8v-8.1zm1.5 0h.8v8.1h-.8v-8.1zm1.5 0h.8v8.1h-.8v-8.1zM62.2 52.7h9.8v9.8h-9.8v-9.8zm.8.8h.8v8.1h-.8v-8.1zm1.5 0h.8v8.1h-.8v-8.1zm1.4 0h.8v8.1h-.8v-8.1zm1.5 0h.8v8.1h-.8v-8.1zm1.5 0h.8v8.1h-.8v-8.1zm1.5 0h.8v8.1h-.8v-8.1z" clip-rule="evenodd"></path>
            <path fill="#00ACD3" fill-rule="evenodd" d="M62.2 41.5h9.8v9.8h-9.8v-9.8zm.8.8h.8v8.1h-.8v-8.1zm1.5 0h.8v8.1h-.8v-8.1zm1.4 0h.8v8.1h-.8v-8.1zm1.5 0h.8v8.1h-.8v-8.1zm1.5 0h.8v8.1h-.8v-8.1zm1.5 0h.8v8.1h-.8v-8.1z" clip-rule="evenodd"></path>
            <path fill="#23C2EE" fill-rule="evenodd" d="M62.2 30.2h9.8v9.8h-9.8v-9.8zm.8.8h.8v8.1h-.8v-8.1zm1.5 0h.8v8.1h-.8v-8.1zm1.4 0h.8v8.1h-.8v-8.1zm1.5 0h.8v8.1h-.8v-8.1zm1.5 0h.8v8.1h-.8v-8.1zm1.5 0h.8v8.1h-.8v-8.1z" clip-rule="evenodd"></path>
            <path fill="#00ACD3" fill-rule="evenodd" d="M73.5 52.7h9.8v9.8h-9.8v-9.8zm.8.8h.8v8.1h-.8v-8.1zm1.4 0h.8v8.1h-.8v-8.1zm1.5 0h.8v8.1h-.8v-8.1zm1.5 0h.8v8.1h-.8v-8.1zm1.5 0h.8v8.1h-.8v-8.1zm1.5 0h.8v8.1h-.8v-8.1z" clip-rule="evenodd"></path>
            <path fill="#D4EEF1" fill-rule="evenodd" d="M48.8 78.3c1.5 0 2.7 1.2 2.7 2.7 0 1.5-1.2 2.7-2.7 2.7-1.5 0-2.7-1.2-2.7-2.7 0-1.5 1.2-2.7 2.7-2.7" clip-rule="evenodd"></path>
            <path fill="#3A4D54" fill-rule="evenodd" d="M48.8 79.1c.2 0 .5 0 .7.1-.2.1-.4.4-.4.7 0 .4.4.8.8.8.3 0 .6-.2.7-.4.1.2.1.5.1.7 0 1.1-.9 1.9-1.9 1.9-1.1 0-1.9-.9-1.9-1.9 0-1 .8-1.9 1.9-1.9M1.1 72.8h125.4c-2.7-.7-8.6-1.6-7.7-5.2-5 5.7-16.9 4-20 1.2-3.4 4.9-23 3-24.3-.8-4.2 5-17.3 5-21.5 0-1.4 3.8-21 5.7-24.3.8-3 2.8-15 4.5-20-1.2 1.1 3.5-4.9 4.5-7.6 5.2" clip-rule="evenodd"></path>
            <path fill="#BFDBE0" d="M56 97.8c-6.7-3.2-10.3-7.5-12.4-12.2-2.5.7-5.5 1.2-8.9 1.4-1.3.1-2.7.1-4.1.1-1.7 0-3.4 0-5.2-.1 6 6 13.6 10.7 27.5 10.8h3.1z"></path>
            <path fill="#D4EEF1" d="M46.1 89.9c-.9-1.3-1.8-2.8-2.5-4.3-2.5.7-5.5 1.2-8.9 1.4 2.3 1.2 5.7 2.4 11.4 2.9z"></path>
        </g>
    </symbol>
</svg>
